<svg width="106" height="30" fill="none" xmlns="http://www.w3.org/2000/svg"><g clip-path="url(#a)"><path fill-rule="evenodd" clip-rule="evenodd" d="M18.251 3.556c-2.563-2.158-5.976-2.214-8.972-1.163C4.93 4.16 1.906 8.013.54 12.64c-.23.869-.419 1.738-.519 2.634l-.002.041c-.012.177-.055.843.06.63.098-.157.155-.372.209-.571.017-.064.033-.126.05-.184.662-2.173 1.47-4.148 2.708-6.026 2.965-4.247 7.733-6.98 12.773-5.467.935.309 1.77.757 2.605 1.29l.06.042c.284.206 1.245.9 1.007.154-.217-.645-.763-1.192-1.239-1.626ZM49.543 5.98c.65 0 1.166.211 1.541.633.362.419.533 1.035.533 1.835v19.061c0 .828-.186 1.443-.574 1.864-.39.407-.91.616-1.5.616-.604 0-1.122-.224-1.512-.644-.388-.434-.59-1.037-.59-1.835v-.422c-.604.66-1.18 1.206-1.771 1.627a7.148 7.148 0 0 1-1.886.952 5.762 5.762 0 0 1-.835.198 7.524 7.524 0 0 1-1.384.124 6.743 6.743 0 0 1-2.95-.657 7.014 7.014 0 0 1-2.362-1.879c-.664-.814-1.167-1.766-1.514-2.859a12.316 12.316 0 0 1-.504-3.561c0-2.704.678-4.806 2.032-6.32 1.353-1.514 3.153-2.271 5.357-2.271.475 0 .907.029 1.325.084.719.1 1.354.295 1.914.56.878.435 1.742 1.08 2.578 1.978V8.672c0-.883.174-1.556.547-2.004.36-.463.879-.688 1.555-.688Zm-4.477 20.072c.646-.392 1.166-.995 1.553-1.808.374-.813.578-1.837.578-3.07 0-1.15-.204-2.145-.578-2.971-.387-.826-.907-1.46-1.569-1.893a3.656 3.656 0 0 0-2.101-.659h-.058c-.807 0-1.54.21-2.175.673-.648.448-1.137 1.094-1.497 1.935-.344.827-.519 1.808-.519 2.915 0 1.178.188 2.172.561 3 .375.812.88 1.43 1.542 1.85a3.93 3.93 0 0 0 2.13.615h.016c.763 0 1.483-.194 2.117-.587ZM103.892 5.98c.678 0 1.18.211 1.555.633.359.419.547 1.035.547 1.835v19.061c0 .828-.202 1.443-.59 1.864-.389.407-.893.616-1.512.616a2.023 2.023 0 0 1-1.513-.644c-.388-.434-.59-1.037-.59-1.835v-.422c-.589.66-1.182 1.206-1.771 1.627a7.16 7.16 0 0 1-1.886.952 5.773 5.773 0 0 1-.836.198 7.291 7.291 0 0 1-1.382.124 6.752 6.752 0 0 1-2.952-.657 7.028 7.028 0 0 1-2.362-1.879c-.665-.814-1.152-1.766-1.498-2.859-.344-1.094-.517-2.284-.517-3.561 0-2.704.676-4.806 2.03-6.32 1.37-1.514 3.153-2.271 5.358-2.271.474 0 .904.029 1.323.084.72.1 1.367.295 1.916.56.877.435 1.742 1.08 2.577 1.978V8.672c0-.883.188-1.556.547-2.004.361-.463.878-.688 1.556-.688Zm-4.463 20.072c.632-.392 1.149-.995 1.539-1.808.389-.813.576-1.837.576-3.07 0-1.15-.187-2.145-.576-2.971-.39-.826-.907-1.46-1.555-1.893a3.742 3.742 0 0 0-2.117-.659h-.042c-.82 0-1.541.21-2.189.673-.635.448-1.138 1.094-1.484 1.935-.36.827-.533 1.808-.533 2.915 0 1.178.188 2.172.562 3 .374.812.893 1.43 1.54 1.85a3.937 3.937 0 0 0 2.134.615h.012c.777 0 1.483-.194 2.133-.587Zm-13.323-1.99c.461 0 .837.126 1.109.364.29.238.432.588.432 1.022 0 .38-.159.842-.477 1.36-.314.52-.79 1.024-1.421 1.514-.636.475-1.427.869-2.393 1.192-.964.321-2.073.475-3.31.475h-.001c-.16 0-.317 0-.461-.014-2.635-.082-4.71-.867-6.206-2.368C71.793 26.024 71 23.894 71 21.174c0-1.275.202-2.466.591-3.56a8.007 8.007 0 0 1 1.697-2.817 7.798 7.798 0 0 1 2.78-1.794c1.051-.392 2.233-.603 3.515-.617h.13c1.74 0 3.223.352 4.463 1.065 1.253.715 2.174 1.64 2.794 2.762.62 1.134.936 2.284.936 3.462 0 1.079-.316 1.78-.964 2.115-.636.309-1.543.478-2.709.478h-8.682c.015.981.214 1.85.604 2.606.403.73.921 1.288 1.585 1.667.561.337 1.18.52 1.843.561.1.015.215.015.331.015a5.35 5.35 0 0 0 1.456-.182 4.6 4.6 0 0 0 1.264-.562c.42-.265.808-.545 1.153-.826.3-.256.675-.594 1.135-1.008l.219-.197c.23-.182.547-.28.964-.28ZM79.57 15.4c-1.109 0-2.017.364-2.721 1.106-.72.743-1.153 1.85-1.296 3.308h8.05c-.102-1.485-.518-2.592-1.225-3.322-.705-.728-1.642-1.092-2.793-1.092h-.015ZM68.337 24.06c-.432 0-.75.099-.978.28-.55.505-1.008.91-1.356 1.206-.345.28-.719.561-1.137.826a4.67 4.67 0 0 1-1.282.562 5.263 5.263 0 0 1-1.454.182c-.115 0-.23 0-.33-.015a4.035 4.035 0 0 1-1.845-.56 4.138 4.138 0 0 1-1.568-1.668c-.405-.756-.606-1.625-.62-2.606h8.697c1.153 0 2.06-.17 2.708-.478.635-.336.95-1.036.95-2.115 0-1.178-.302-2.328-.921-3.462-.62-1.122-1.555-2.047-2.792-2.762-1.243-.713-2.738-1.065-4.464-1.065H61.8c-1.284.014-2.45.225-3.514.617-1.096.42-2.017 1.023-2.766 1.794a7.8 7.8 0 0 0-1.713 2.816 10.548 10.548 0 0 0-.59 3.561c0 2.72.805 4.85 2.391 6.433 1.495 1.5 3.557 2.286 6.192 2.368.157.014.3.014.46.014 1.252 0 2.348-.154 3.31-.475.966-.323 1.758-.717 2.391-1.192.648-.49 1.109-.994 1.427-1.514.317-.518.475-.98.475-1.36 0-.434-.143-.784-.417-1.022-.288-.238-.664-.365-1.11-.365Zm-9.274-7.555c.704-.742 1.611-1.106 2.721-1.106h.016c1.15 0 2.087.364 2.794 1.092.718.73 1.122 1.837 1.238 3.322h-8.065c.159-1.457.591-2.565 1.296-3.308Zm-37.874-1.71v.534c.792-1.01 1.642-1.738 2.564-2.215.936-.462 2.001-.702 3.21-.702 1.167 0 2.219.253 3.14.744a4.741 4.741 0 0 1 2.06 2.103c.303.531.49 1.107.575 1.723.088.603.13 1.386.13 2.34v8.033c0 .868-.215 1.526-.62 1.961-.402.448-.936.672-1.584.672-.661 0-1.194-.224-1.613-.687-.418-.448-.617-1.105-.617-1.946v-7.192c0-1.429-.203-2.522-.606-3.279-.404-.756-1.225-1.135-2.433-1.135-.793 0-1.513.239-2.162.686a4.012 4.012 0 0 0-1.44 1.906c-.215.645-.317 1.836-.317 3.618v5.396c0 .882-.214 1.526-.632 1.976-.418.433-.95.657-1.614.657-.646 0-1.167-.224-1.584-.687-.417-.448-.62-1.105-.62-1.946v-12.49c0-.825.188-1.443.563-1.835.36-.405.863-.618 1.512-.618.389 0 .734.083 1.05.268.319.18.577.448.764.813.187.363.274.799.274 1.303ZM9.251 16.803v10.314c0 .953.23 1.67.676 2.145.461.49 1.023.728 1.729.728.72 0 1.312-.238 1.757-.714.446-.477.677-1.192.677-2.159V15.791a7.804 7.804 0 0 1-3.946 1.051c-.302 0-.59-.014-.893-.04Zm3.931-2.93c-1.8.896-4.004.197-4.911-1.556-.922-1.752-.201-3.896 1.599-4.779 1.8-.897 4.005-.197 4.911 1.556.922 1.752.202 3.896-1.599 4.779Z" fill="#6D6D6D"/><mask id="b" style="mask-type:alpha" maskUnits="userSpaceOnUse" x="0" y="1" width="106" height="29"><path fill-rule="evenodd" clip-rule="evenodd" d="M18.251 3.556c-2.563-2.158-5.976-2.214-8.972-1.163C4.93 4.16 1.906 8.013.54 12.64c-.23.869-.419 1.738-.519 2.634l-.002.041c-.012.177-.055.843.06.63.098-.157.155-.372.209-.571.017-.064.033-.126.05-.184.662-2.173 1.47-4.148 2.708-6.026 2.965-4.247 7.733-6.98 12.773-5.467.935.309 1.77.757 2.605 1.29l.06.042c.284.206 1.245.9 1.007.154-.217-.645-.763-1.192-1.239-1.626ZM49.543 5.98c.65 0 1.166.211 1.541.633.362.419.533 1.035.533 1.835v19.061c0 .828-.186 1.443-.574 1.864-.39.407-.91.616-1.5.616-.604 0-1.122-.224-1.512-.644-.388-.434-.59-1.037-.59-1.835v-.422c-.604.66-1.18 1.206-1.771 1.627a7.148 7.148 0 0 1-1.886.952 5.762 5.762 0 0 1-.835.198 7.524 7.524 0 0 1-1.384.124 6.743 6.743 0 0 1-2.95-.657 7.014 7.014 0 0 1-2.362-1.879c-.664-.814-1.167-1.766-1.514-2.859a12.316 12.316 0 0 1-.504-3.561c0-2.704.678-4.806 2.032-6.32 1.353-1.514 3.153-2.271 5.357-2.271.475 0 .907.029 1.325.084.719.1 1.354.295 1.914.56.878.435 1.742 1.08 2.578 1.978V8.672c0-.883.174-1.556.547-2.004.36-.463.879-.688 1.555-.688Zm-4.477 20.072c.646-.392 1.166-.995 1.553-1.808.374-.813.578-1.837.578-3.07 0-1.15-.204-2.145-.578-2.971-.387-.826-.907-1.46-1.569-1.893a3.656 3.656 0 0 0-2.101-.659h-.058c-.807 0-1.54.21-2.175.673-.648.448-1.137 1.094-1.497 1.935-.344.827-.519 1.808-.519 2.915 0 1.178.188 2.172.561 3 .375.812.88 1.43 1.542 1.85a3.93 3.93 0 0 0 2.13.615h.016c.763 0 1.483-.194 2.117-.587ZM103.892 5.98c.678 0 1.18.211 1.555.633.359.419.547 1.035.547 1.835v19.061c0 .828-.202 1.443-.59 1.864-.389.407-.893.616-1.512.616a2.023 2.023 0 0 1-1.513-.644c-.388-.434-.59-1.037-.59-1.835v-.422c-.589.66-1.182 1.206-1.771 1.627a7.16 7.16 0 0 1-1.886.952 5.773 5.773 0 0 1-.836.198 7.291 7.291 0 0 1-1.382.124 6.752 6.752 0 0 1-2.952-.657 7.028 7.028 0 0 1-2.362-1.879c-.665-.814-1.152-1.766-1.498-2.859-.344-1.094-.517-2.284-.517-3.561 0-2.704.676-4.806 2.03-6.32 1.37-1.514 3.153-2.271 5.358-2.271.474 0 .904.029 1.323.084.72.1 1.367.295 1.916.56.877.435 1.742 1.08 2.577 1.978V8.672c0-.883.188-1.556.547-2.004.361-.463.878-.688 1.556-.688Zm-4.463 20.072c.632-.392 1.149-.995 1.539-1.808.389-.813.576-1.837.576-3.07 0-1.15-.187-2.145-.576-2.971-.39-.826-.907-1.46-1.555-1.893a3.742 3.742 0 0 0-2.117-.659h-.042c-.82 0-1.541.21-2.189.673-.635.448-1.138 1.094-1.484 1.935-.36.827-.533 1.808-.533 2.915 0 1.178.188 2.172.562 3 .374.812.893 1.43 1.54 1.85a3.937 3.937 0 0 0 2.134.615h.012c.777 0 1.483-.194 2.133-.587Zm-13.323-1.99c.461 0 .837.126 1.109.364.29.238.432.588.432 1.022 0 .38-.159.842-.477 1.36-.314.52-.79 1.024-1.421 1.514-.636.475-1.427.869-2.393 1.192-.964.321-2.073.475-3.31.475h-.001c-.16 0-.317 0-.461-.014-2.635-.082-4.71-.867-6.206-2.368C71.793 26.024 71 23.894 71 21.174c0-1.275.202-2.466.591-3.56a8.007 8.007 0 0 1 1.697-2.817 7.798 7.798 0 0 1 2.78-1.794c1.051-.392 2.233-.603 3.515-.617h.13c1.74 0 3.223.352 4.463 1.065 1.253.715 2.174 1.64 2.794 2.762.62 1.134.936 2.284.936 3.462 0 1.079-.316 1.78-.964 2.115-.636.309-1.543.478-2.709.478h-8.682c.015.981.214 1.85.604 2.606.403.73.921 1.288 1.585 1.667.561.337 1.18.52 1.843.561.1.015.215.015.331.015a5.35 5.35 0 0 0 1.456-.182 4.6 4.6 0 0 0 1.264-.562c.42-.265.808-.545 1.153-.826.3-.256.675-.594 1.135-1.008l.219-.197c.23-.182.547-.28.964-.28ZM79.57 15.4c-1.109 0-2.017.364-2.721 1.106-.72.743-1.153 1.85-1.296 3.308h8.05c-.102-1.485-.518-2.592-1.225-3.322-.705-.728-1.642-1.092-2.793-1.092h-.015ZM68.337 24.06c-.432 0-.75.099-.978.28-.55.505-1.008.91-1.356 1.206-.345.28-.719.561-1.137.826a4.67 4.67 0 0 1-1.282.562 5.263 5.263 0 0 1-1.454.182c-.115 0-.23 0-.33-.015a4.035 4.035 0 0 1-1.845-.56 4.138 4.138 0 0 1-1.568-1.668c-.405-.756-.606-1.625-.62-2.606h8.697c1.153 0 2.06-.17 2.708-.478.635-.336.95-1.036.95-2.115 0-1.178-.302-2.328-.921-3.462-.62-1.122-1.555-2.047-2.792-2.762-1.243-.713-2.738-1.065-4.464-1.065H61.8c-1.284.014-2.45.225-3.514.617-1.096.42-2.017 1.023-2.766 1.794a7.8 7.8 0 0 0-1.713 2.816 10.548 10.548 0 0 0-.59 3.561c0 2.72.805 4.85 2.391 6.433 1.495 1.5 3.557 2.286 6.192 2.368.157.014.3.014.46.014 1.252 0 2.348-.154 3.31-.475.966-.323 1.758-.717 2.391-1.192.648-.49 1.109-.994 1.427-1.514.317-.518.475-.98.475-1.36 0-.434-.143-.784-.417-1.022-.288-.238-.664-.365-1.11-.365Zm-9.274-7.555c.704-.742 1.611-1.106 2.721-1.106h.016c1.15 0 2.087.364 2.794 1.092.718.73 1.122 1.837 1.238 3.322h-8.065c.159-1.457.591-2.565 1.296-3.308Zm-37.874-1.71v.534c.792-1.01 1.642-1.738 2.564-2.215.936-.462 2.001-.702 3.21-.702 1.167 0 2.219.253 3.14.744a4.741 4.741 0 0 1 2.06 2.103c.303.531.49 1.107.575 1.723.088.603.13 1.386.13 2.34v8.033c0 .868-.215 1.526-.62 1.961-.402.448-.936.672-1.584.672-.661 0-1.194-.224-1.613-.687-.418-.448-.617-1.105-.617-1.946v-7.192c0-1.429-.203-2.522-.606-3.279-.404-.756-1.225-1.135-2.433-1.135-.793 0-1.513.239-2.162.686a4.012 4.012 0 0 0-1.44 1.906c-.215.645-.317 1.836-.317 3.618v5.396c0 .882-.214 1.526-.632 1.976-.418.433-.95.657-1.614.657-.646 0-1.167-.224-1.584-.687-.417-.448-.62-1.105-.62-1.946v-12.49c0-.825.188-1.443.563-1.835.36-.405.863-.618 1.512-.618.389 0 .734.083 1.05.268.319.18.577.448.764.813.187.363.274.799.274 1.303ZM9.251 16.803v10.314c0 .953.23 1.67.676 2.145.461.49 1.023.728 1.729.728.72 0 1.312-.238 1.757-.714.446-.477.677-1.192.677-2.159V15.791a7.804 7.804 0 0 1-3.946 1.051c-.302 0-.59-.014-.893-.04Zm3.931-2.93c-1.8.896-4.004.197-4.911-1.556-.922-1.752-.201-3.896 1.599-4.779 1.8-.897 4.005-.197 4.911 1.556.922 1.752.202 3.896-1.599 4.779Z" fill="#fff"/></mask><g mask="url(#b)"><path fill="#fff" d="M0 0h106v30H0z"/></g></g><defs><clipPath id="a"><path fill="#fff" d="M0 0h106v30H0z"/></clipPath></defs></svg>