<svg viewBox="0 0 25 36" fill="none" xmlns="http://www.w3.org/2000/svg">
  <path
    d="m11.513 18.634-.076 12.797c-.081.968.238 1.927.881 2.651.545.59 1.31.926 2.111.926a3.174 3.174 0 0 0 2.188-.886c.642-.725.96-1.684.877-2.652l-.013-14.034a9.255 9.255 0 0 1-4.808 1.277 5.04 5.04 0 0 1-1.16-.079ZM23.974 4.279a5.769 5.769 0 0 0-1.514-2.032C19.249-.4 15.038-.459 11.408.817 6.1 3.032 2.395 7.834.713 13.553.459 14.658.205 15.675.039 16.78c0 0-.087 1.096.08.883.156-.313.271-.646.342-.99a29.349 29.349 0 0 1 3.28-7.462C7.367 3.967 13.175.568 19.418 2.427a27.286 27.286 0 0 1 3.21 1.614c.168.168 1.602 1.271 1.346.238Z"
    fill="#fff" />
  <path
    d="M12.09 7.19a4.412 4.412 0 0 0-2.192 2.567 4.44 4.44 0 0 0 .256 3.374 4.455 4.455 0 0 0 5.988 1.947 4.314 4.314 0 0 0 2.233-2.553 4.342 4.342 0 0 0-.296-3.388 4.446 4.446 0 0 0-5.988-1.947Z"
    fill="#fff" />
</svg>