<svg width="440" height="270" viewBox="0 0 440 270" fill="none" xmlns="http://www.w3.org/2000/svg">
<g clip-path="url(#clip0_78_173242)">
<g clip-path="url(#clip1_78_173242)">
<path d="M-33.9955 269.856L-33.9954 -689.144L467.005 -689.144L467.005 269.856L-33.9955 269.856Z" fill="#0D2D5E"/>
<path opacity="0.85" d="M92.109 285.682C92.109 285.682 168.035 179.292 173.169 172.182C178.302 165.071 186.116 156.465 197.374 150.776C214.272 142.229 230.982 147.824 248.579 141.191C288.285 126.215 298.245 67.0944 338.211 52.9678C356.872 46.3691 379.556 52.3864 398.08 45.3455C410.173 40.7492 422.883 26.4239 431.186 14.5084C445.298 -5.73989 458.488 -23.5634 470.668 -45.2477L463.15 295.376L92.109 285.682Z" fill="#164081"/>
<path opacity="0.6" d="M-37.5939 -274.816L-32.4012 211.496C-32.4012 211.496 247.14 122.135 245.469 -34.2464C243.797 -190.628 -37.5939 -274.816 -37.5939 -274.816Z" fill="#164081"/>
</g>
</g>
<defs>
<clipPath id="clip0_78_173242">
<rect width="440" height="270" fill="white"/>
</clipPath>
<clipPath id="clip1_78_173242">
<rect width="959" height="501" fill="white" transform="matrix(-4.37114e-08 1 1 4.37114e-08 -34 -689)"/>
</clipPath>
</defs>
</svg>
