<svg width="440" height="600" viewBox="0 0 440 600" fill="none" xmlns="http://www.w3.org/2000/svg">
<g clip-path="url(#clip0_217_244532)">
<g clip-path="url(#clip1_217_244532)">
<path d="M-33.9955 728.856L-33.9955 -230.144L467.005 -230.144L467.005 728.856L-33.9955 728.856Z" fill="#164081"/>
<path opacity="0.5" d="M143.437 -33.5193L467.178 90.3507L467.178 -222.974L-37.8043 -277.205L-37.8043 301.808L190.569 366.543L143.437 -33.5193Z" fill="#0D2D5E"/>
<path opacity="0.8" d="M466.114 160.124C466.114 160.124 316.198 282.747 306.169 291.03C296.139 299.313 283.982 311.999 275.793 330.394C263.499 358.026 270.893 385.713 261.238 414.562C239.449 479.655 156.901 494.661 136.281 560.191C126.653 590.79 134.5 628.32 124.256 658.68C117.57 678.501 97.3104 699.112 80.5358 712.513C52.0103 735.291 26.8827 756.607 -3.59292 776.16L470.827 771.837L466.114 160.124Z" fill="#0D2D5E"/>
</g>
</g>
<defs>
<clipPath id="clip0_217_244532">
<rect width="440" height="600" fill="white"/>
</clipPath>
<clipPath id="clip1_217_244532">
<rect width="959" height="501" fill="white" transform="matrix(-4.37114e-08 1 1 4.37114e-08 -34 -230)"/>
</clipPath>
</defs>
</svg>
