<svg width="24" height="24" viewBox="0 0 24 24" fill="none" xmlns="http://www.w3.org/2000/svg">
<path fill-rule="evenodd" clip-rule="evenodd" d="M2 5.5C2 5.22386 2.22386 5 2.5 5H17.5C17.7761 5 18 5.22386 18 5.5V11L21.5732 7.42678C21.7307 7.26928 22 7.38083 22 7.60355V16.3964C22 16.6192 21.7307 16.7307 21.5732 16.5732L18 13V18.5C18 18.7761 17.7761 19 17.5 19H2.5C2.22386 19 2 18.7761 2 18.5V5.5ZM14.2166 12.3361L8.61678 15.936C8.55118 15.9784 8.47598 16 8.39998 16C8.33439 16 8.26879 15.9832 8.20879 15.9512C8.0808 15.8808 8 15.7464 8 15.6V8.4003C8 8.2531 8.0808 8.11951 8.20879 8.04911C8.33679 7.97951 8.49358 7.98351 8.61678 8.06351L14.2166 11.6634C14.331 11.737 14.3997 11.8642 14.3997 12.0002C14.3997 12.1362 14.331 12.2625 14.2166 12.3361Z" fill="#2557A7"/>
</svg>
